<?xml version="1.0" standalone="no"?>
<!DOCTYPE svg PUBLIC "-//W3C//DTD SVG 20010904//EN"
 "http://www.w3.org/TR/2001/REC-SVG-20010904/DTD/svg10.dtd">
<svg version="1.0" xmlns="http://www.w3.org/2000/svg"
 width="500.000000pt" height="500.000000pt" viewBox="0 0 500.000000 500.000000"
 preserveAspectRatio="xMidYMid meet">

<g transform="translate(0.000000,500.000000) scale(0.100000,-0.100000)"
fill="#0082ca" stroke="auto">
<path d="M202 3388 c-7 -7 -12 -17 -12 -23 0 -21 145 -208 201 -260 98 -92
242 -192 655 -456 225 -144 447 -291 494 -327 147 -113 333 -309 482 -508 144
-191 170 -214 242 -214 37 0 126 43 274 132 186 112 404 198 627 248 143 32
511 95 790 135 437 63 533 87 708 178 122 63 152 89 137 117 -6 11 -18 20 -26
20 -9 0 -73 -26 -142 -59 -149 -69 -193 -83 -327 -110 -197 -39 -288 -45 -730
-46 l-430 -1 -180 -37 c-219 -45 -395 -69 -535 -71 -99 -1 -109 1 -175 32
-108 51 -288 158 -378 225 -220 163 -354 238 -592 332 -502 198 -779 378 -990
642 -50 63 -70 74 -93 51z"/>
</g>
</svg>
